<svg width="1120" height="1120" viewBox="0 0 1120 1120" fill="none" xmlns="http://www.w3.org/2000/svg">
<path d="M688.974 373.411C691.578 373.704 707.731 384.354 711.245 386.307C747.876 406.683 781.648 413.644 823.026 408.98C823.145 420.917 822.841 432.927 823.407 444.847C825.67 441.62 827.945 438.31 830.381 435.227C867.638 388.093 947.547 385.487 979.145 440.579C1004.89 485.474 997.192 536.821 994.405 585.992C993.827 610.376 988.836 656.121 1017.76 666.853C1027.18 670.522 1041.76 665.323 1046.61 656.407C1059.4 632.848 1038.2 612.263 1014.29 625.443C994.893 584.281 1049.06 561.291 1074.74 592.184C1088.04 608.183 1085.77 634.478 1079.07 652.737C1056.91 713.03 971.788 737.51 919.201 702.78C853.784 659.41 888.199 562.731 881.212 498.637C880.325 487.095 877.638 475.905 870.967 466.37C865.035 457.896 848.798 458.052 842.193 465.254C815.908 493.917 818.951 543.398 818.212 579.759C817.754 602.312 818.659 623.344 820.613 645.609C821.597 670.357 832.595 693.989 807.813 704.178C781.37 714.452 731.487 723.496 691.875 763.109C683.059 772.803 673.678 781.968 663.785 790.554C674.059 793.966 689.712 798.402 700.052 801.308C726.361 779.979 763.088 755.153 793.262 740.856C832.502 722.438 877.49 711.161 919.571 727.006C950.209 738.541 966.243 765.849 955.034 797.634C947.624 818.648 924.186 836.136 903.983 844.425C855.487 864.32 798.081 861.855 747.881 850.136C729.929 845.891 717.046 842.907 699.713 835.905C693.573 841.514 685.681 847.564 679.111 852.81C665.364 863.951 651.282 874.682 636.892 884.971C615.271 899.459 599.91 909.302 577.038 921.825C481.04 974.237 367.965 985.742 263.376 953.748C230.423 944.006 198.114 921.086 182.237 890.241C155.555 838.406 172.231 775.185 225.57 748.497C259.026 731.752 319.756 724.374 340.194 763.627C321.402 767.242 309.365 778.228 305.393 797.3C293.659 853.649 340.596 894.814 391.771 904.389C488.822 922.545 587.634 876.235 666.62 823.954C659.532 822.078 643.599 815.641 635.159 812.86C567.347 861.658 473.079 902.745 387.919 876.253C371.588 871.174 351.515 855.924 344.638 840.144C329.055 804.381 349.696 770.171 383.236 755.541C435.438 732.175 498.42 740.386 552.062 754.052C578.319 760.745 606.307 771.499 631.347 780.806C648.185 767.926 668.371 739.082 677.484 720.17C688.05 698.481 695.311 675.337 699.034 651.504C702.393 630.226 702.262 609.553 702.197 588.148L702.048 535.974L702.018 498.055C701.994 475.303 701.899 460.366 693.245 438.401C684.275 415.655 672.987 405.455 651.569 395.187C663.505 392.791 682.119 383.509 688.974 373.411ZM522.782 773.161C504.953 769.951 487.865 766.807 469.662 768.141C451.805 769.261 429.998 774.655 417.505 788.13C405.174 801.439 407.103 820.643 421.294 831.724C451.976 855.686 501.796 848.314 535.629 836.78C550.637 832.873 577.223 818.142 591.125 810.294C595.586 807.775 602.132 803.267 606.349 801.368C579.129 789.578 552.087 778.442 522.782 773.161ZM899.111 761.662C900.296 742.161 874.237 739.779 860.991 740.744C853.206 741.375 848.304 743.018 840.871 744.637C809.541 751.473 785.286 766.955 759.913 785.707C750.46 792.691 739.942 802.773 731.132 809.174C746.934 812.098 756.941 813.813 772.85 815.403C803.882 816.522 833.127 815.48 861.539 801.618C876.858 794.139 897.991 780.169 899.111 761.662ZM476.439 148.939C482.36 148.343 489.018 148.49 494.978 148.483C548.293 148.418 609.887 170.564 630.204 224.579C623.146 227.988 612.026 234.474 605.509 238.568C590.41 248.051 596.318 245.559 580.66 239.249C560.973 231.313 542.204 226.295 521.123 223.431C512.603 207.328 494.566 194.255 477.887 187.535C446.323 174.817 407.167 181.561 376.808 194.266C327.652 214.879 288.756 254.251 268.754 303.648C277.72 313.29 313.708 334.279 326.364 339.506C329.207 333.159 331.52 327.663 334.685 321.382C352.042 286.944 389.493 257.889 426.402 246.689C482.444 229.774 542.886 235.51 594.746 262.665C602.662 258.713 611.537 252.625 619.399 248.077C694.162 205.06 789.212 175.638 873.249 208.664C923.418 228.381 953.563 281.029 931.435 332.919C912.071 378.312 854.129 393.695 809.249 394.707C771.188 396.23 728.809 383.506 698.355 359.946C662.659 332.335 636.762 308.453 594.711 289.541C588.546 295.421 581.565 296.354 575.436 301.758C596.557 303.897 608.422 311.504 625.176 323.585C623.64 327.923 621.174 331.197 618.672 335.012C607.099 352.661 589.642 365.943 570.939 375.522C558.775 381.866 545.858 386.654 532.496 389.774C495.479 398.234 433.646 396.971 397.39 385.269C391.774 427.703 398.304 474.867 424.148 510.151C439.942 531.714 464.454 545.651 490.804 549.639C509.453 552.462 538.55 551.786 554.303 539.944C571.725 526.848 578.706 505.486 581.517 484.768C583.65 469.009 585.93 431.701 575.775 418.726C573.833 416.243 571.195 414.534 567.997 414.305C563.178 413.96 557.847 416.539 554.371 419.752C533.641 438.914 532.107 508.508 531.068 536.704C494.853 540.903 461.142 535.674 437.362 504.639C433.168 499.166 430.542 493.473 426.894 487.753C428.792 483.394 430.848 479.102 433.054 474.89C439.999 464.089 442.219 459.83 450.793 449.915C478.017 418.429 520.748 401.761 561.674 399.586C594.46 398.316 634.438 402.93 659.716 425.608C687.514 450.55 684.519 495.603 659.372 521.47C627.005 554.765 577.253 559.942 533.239 561.383C537.666 583.399 546.811 605.125 565.757 620.109C589.696 639.038 643.563 647.199 666.078 621.607C668.955 618.337 672.499 610.984 671.474 606.424C668.621 594.525 654.952 593.963 646.417 587.704C630.001 575.662 637.375 548.823 658.198 546.59C665.19 545.801 672.201 547.927 677.58 552.467C685.823 559.361 689.141 572.657 689.593 582.941C692.78 655.493 640.555 713.31 568.091 718.133C488.73 723.421 420.588 669.363 414.714 589.203C412.282 594.321 410.314 604.805 408.535 610.77C402.688 630.16 393.236 648.274 380.675 664.163C357.466 693.708 323.488 712.852 286.186 717.389C181.71 729.108 137.364 644.541 128.462 553.796C119.233 459.748 145.082 361.988 204.786 288.248C186.852 279.769 159.177 272.24 141.242 283.686C129.319 291.294 126.443 309.117 134.704 320.387C139.987 327.595 146.853 330.18 155.326 331.578C138.037 364.788 84.7038 364.223 59.3492 340.835C11.0059 296.24 41.0458 212.858 107.497 210.482C139.346 209.344 160.58 221.219 184.906 240.749C197.144 250.369 208.058 259.896 219.435 270.11C286.193 197.995 378.315 154.561 476.439 148.939ZM271.228 453.017C264.58 454.302 259.591 457.186 255.773 462.897C234.577 494.598 237.34 588.411 245.009 625.489C247.484 637.452 252.68 654.847 263.313 661.774C266.401 663.785 269.701 664.37 273.314 664.695C280.626 662.727 284.994 659.073 288.824 652.54C308.564 618.861 306.689 523.528 296.646 486.144C293.904 475.938 290.78 461.116 280.865 455.464C278.133 453.907 274.378 452.855 271.228 453.017ZM261.606 320.845C250.171 348.096 241.449 404.007 240.318 433.966C252.367 413.027 276.098 402.108 299.421 399.802C302.41 450.505 313.982 491.733 353.763 526.492C372.287 542.677 396.386 555.731 420.963 559.303C432.752 561.381 453.979 562.872 466.066 562.78C455.181 559.469 443.093 558.504 431.32 554.981C388.7 542.228 354.514 517.921 333.373 478.201C315.4 444.434 309.943 394.34 320.977 357.806C321.126 357.311 321.283 356.819 321.447 356.329C316.262 352.168 303.767 346.622 297.163 343.143C286.095 337.312 272.237 325.567 261.606 320.845ZM820.553 291.039C796.693 260.729 744.296 252.065 707.909 255.538C686.556 256.866 660.032 263.569 639.829 270.319C639.412 276.229 638.864 282.131 638.185 288.017C674.709 311.616 703.084 344.947 742.795 362.344C749.877 365.449 758.93 367.692 766.441 369.763C783.833 372.505 800.904 373.83 816.05 362.574C839.762 344.948 837.564 312.647 820.553 291.039ZM569.807 280.436C553.299 276.604 531.97 271.848 514.962 274.501C479.865 277.639 449.152 291.229 426.561 318.651C417.157 330.065 406.951 347.929 403.159 362.214C423.25 364.578 434.987 364.218 454.475 359.938C478.089 354.799 488.628 345.996 507.112 331.699C528.395 315.237 548.027 295.998 569.807 280.436Z" fill="#111111"/>
</svg>
