<svg width="1120" height="1120" viewBox="0 0 1120 1120" fill="none" xmlns="http://www.w3.org/2000/svg">
<path d="M51.0968 380.519C71.1586 327.925 122.054 264.032 165.531 228.332C204.843 197.507 248.848 171.437 297.58 158.967C302.908 157.603 308.497 155.135 313.761 154.2C373.473 143.59 435.052 145.564 479.994 191.576C552.334 265.637 497.4 368.054 430.134 422.557C428.894 423.549 427.827 425.275 427.298 426.769C428.963 429.487 444.63 428.778 448.795 429.081C497.617 432.63 544.904 460.066 570.821 501.844C573.043 505.427 578.48 512.967 578.244 517.395C578.146 519.221 575.402 520.769 573.84 521.614C570.756 524.943 537.004 540.345 530.559 541.167C527.076 539.823 525.958 528.659 523.543 524.413C518.15 515.158 512.766 504.686 504.77 497.371C435.253 433.783 313.261 496.622 260.403 550.317C256.294 565.953 255.161 586.823 253.056 603.049C251.996 611.212 244.274 660.028 246.314 663.958C251.498 663.939 263.356 655.767 269.434 653.036C290.203 643.701 311.138 633.6 332.365 625.411C365.261 612.963 398.628 601.797 432.39 591.937L486.536 576.356C510.359 569.602 535.877 562.244 558.483 552.034C639.26 515.557 709.953 457.105 745.83 374.378C754.331 354.762 763.055 325.302 766.846 304.264C767.643 297.954 770.44 292.532 775.537 288.636C780.418 284.862 786.626 283.245 792.73 284.158C814.628 287.645 807.322 322.549 806.205 338.359C804.989 356.674 803.663 374.981 802.218 393.279L795.167 476.272C793.56 496.13 792.56 515.334 790.619 535.3L782.725 614.436C782.065 621.42 780.686 630.483 780.242 636.979C794.69 633.646 818.732 619.495 832.435 612.717C832.932 611.962 862.169 593.391 866.841 589.277C869.396 578.556 868.867 566.19 870.331 555.19C876.846 506.286 881.263 457.579 891.922 409.279C894.993 395.365 896.692 380.736 900.038 366.842C911.461 319.426 924.596 271.888 942.527 226.48C944.135 221.125 947.049 216.124 949.421 210.969C963.439 180.544 991.675 142.571 1030.19 154.535C1045.73 159.363 1063.12 173.965 1069.79 188.905C1073.18 197.404 1079.71 212.023 1080.84 220.802C1084.72 250.734 1085.16 286.175 1079.82 315.855C1074.65 344.607 1064.98 377.539 1053.69 404.395C1028.51 464.327 987.552 536.33 936.665 577.56C933.738 586.478 933.803 613.72 933.241 625.007C930.477 672.691 930.333 720.49 932.816 768.187C934.398 801.138 941.73 907.941 969.764 926.772C969.673 928.301 969.359 928.817 967.921 929.765C958.727 938.082 945.305 943.401 932.183 943.231C911.082 942.963 897.561 917.677 888.321 901.375C882.871 891.75 880.42 875.703 877.166 864.928C870.736 843.634 868.318 822.406 865.933 800.275C861.26 757.067 859.81 713.57 861.594 670.143C862.156 658.049 863.685 648.111 864.449 636.55C855.876 640.229 848.223 646.905 839.872 651.335C823.051 660.255 805.335 667.524 788.097 675.604C784.13 677.462 779.634 679.131 776.131 681.757C772.302 684.631 768.61 718.144 767.603 725.044C758.017 790.749 728.917 912.025 674.077 952.535C656.636 965.42 635.234 971.902 613.637 968.589C597.731 966.146 584.609 958.22 575.075 945.198C558.483 922.525 559.156 886.615 563.254 859.924C565.423 845.797 570.644 830.625 575.729 817.329C596.535 762.908 625.726 730.82 672.718 696.7C682.599 689.525 693.296 682.769 703.66 676.297C708.15 673.494 712.835 671.164 717.109 668.014L717.893 667.429C719.547 662.728 721.259 645.229 722.102 639.089L730.845 574.012L741.451 495.517C743.653 479.041 746.542 460.915 746.98 444.434C742.347 450.187 738.844 457.259 734.485 463.19C696.511 515.136 643.076 551.417 585.753 578.937C541.97 601.21 494.459 613.391 448.066 628.655C395.501 646.516 343.64 665.965 293.433 689.852C285.517 693.759 244.719 711.198 242.435 717.478C234.795 738.497 240.681 775.695 232.055 797.779C226.535 812.527 206.138 816.525 193.273 810.416C178.619 803.464 174.613 789.031 175.398 774.087C175.544 771.311 175.321 765.031 174.405 762.581L172.983 762.588C159.639 769.187 123.719 814.924 118.219 830.39C112.613 846.15 110.177 871.469 117.935 886.647C127.83 906.001 148.755 916.546 169.754 918.18C247.239 928.569 326.769 886.745 386.955 841.668C447.807 796.087 494.916 734.871 521.207 663.442C525.663 651.41 527.249 639.369 531.117 627.45C535.031 623.243 549.348 616.51 554.902 615.305C563.456 613.446 595.176 595.508 601.064 595.78C604.946 612.023 601.391 648.517 598.319 664.983C581.839 753.257 517.189 833.219 446.498 885.811C357.952 951.686 220.671 1003.91 115.803 946.341C80.9811 927.105 60.2154 882.322 68.0075 843.066C79.8218 783.542 129.612 738.053 177.447 704.965C181.194 691.159 179.817 672.987 181.737 658.553C185.642 631.707 188.555 605.031 191.555 578.077C193.975 556.321 198.994 534.155 201.265 512.195C202.046 504.641 204.735 495.187 206.098 487.464L225.854 376.703C228.889 360.331 232.371 344.04 235.326 327.664C237.591 315.115 240.171 302.716 242.959 290.273C244.03 285.496 244.75 280.246 246.342 275.643C248.128 270.481 251.711 266.238 256.729 263.972C261.757 261.703 267.439 261.756 272.554 263.706C279.023 266.171 282.32 270.925 284.138 277.416C291.679 304.345 279.305 383.324 275.097 415.048C273.985 423.432 273.37 431.878 272.303 440.274C271.549 446.206 267.739 464.169 269.882 469.181C271.957 468.679 279.978 461.774 282.357 460.147C303.448 445.716 324.111 430.519 344.184 414.703C349.713 410.346 354.016 406.179 359.945 402.266C361.87 398.776 377.454 386.126 380.712 382.617C389.425 373.232 400.5 364.438 409.165 355.314C430.497 333.208 447.599 307.381 459.623 279.113C460.659 272.607 462.365 266.597 463.268 259.904C465.361 244.304 461.334 228.499 452.031 215.801C441.225 200.947 416.124 191.902 398.559 189.566C326.637 180 248.321 212.582 192.699 257.384C138.526 301.02 84.6478 372.706 70.9829 442.36C68.8806 453.077 68.8042 468.565 75.3893 477.747C80.8511 488.769 98.7643 481.6 97.4684 496.165C97.2116 499.05 93.9749 503.108 91.7923 504.14C73.7641 512.664 52.9174 500.126 45.1279 484.853C27.793 450.863 38.9924 413.361 51.0968 380.519ZM953.244 505.659C987.193 460.415 1012.96 409.579 1029.38 355.453C1043.5 310.047 1050.03 272.483 1043.71 224.318C1042.45 214.69 1038.67 197.671 1030.31 191.37C1028.3 189.853 1024.71 190.211 1022.28 190.407C995.054 208.937 975.672 295.706 969.464 328.041C958.649 384.324 948.552 442.642 942.298 499.633C941.71 504.96 939.92 511.446 940.521 516.626L941.384 517.714C946.651 517.518 950.166 509.434 953.244 505.659ZM607.148 924.89C609.448 928.072 611.65 930.189 614.754 932.626C625.086 933.228 632.117 931.163 639.887 924.25C676.391 891.757 692.604 811.651 702.033 764.783C704.516 752.447 709.372 733.597 709.862 721.319C709.934 719.444 710.117 716.432 708.849 714.995C696.877 724.312 683.768 731.859 672.306 741.254C633.3 773.212 603.724 819.433 597.378 869.947C595.366 885.955 595.614 912.267 607.148 924.89Z" fill="black"/>
</svg>
