<svg width="1120" height="1120" viewBox="0 0 1120 1120" fill="none" xmlns="http://www.w3.org/2000/svg">
<path d="M621.125 724.336C641.758 723.942 660.696 726.95 679.399 736.341C720.278 756.862 729.947 803.504 741.191 844.135C749.05 871.985 757.094 899.78 765.325 927.515C773.632 955.189 781.135 982.355 807.199 998.134C812.635 995.941 817.48 992.49 821.325 988.06C850.282 955.041 848.63 816.231 845.337 770.486C839.458 761.795 829.019 751.851 819.23 747.028C815.741 745.305 795.818 739.251 805.219 730.959C809.316 727.344 824.289 728.919 830.441 729.323C853.88 730.866 877.494 732.009 900.971 729.832C913.068 728.76 926.571 725.873 934.911 736.784C939.433 742.702 943.108 749.183 947.079 755.653C951.962 763.621 957.102 771.437 962.489 779.072C991.976 820.125 1021.22 861.353 1050.21 902.755C1049.92 878.466 1048.67 854.757 1044.94 830.708C1041.08 805.785 1032.75 767.697 1012.17 751.212C1008.32 748.138 1003.96 745.644 999.469 743.637C996.522 742.313 992.551 741.318 990.013 739.305C988.668 738.238 987.897 736.964 987.87 735.225C987.848 734.005 988.663 732.594 989.466 731.736C991.304 729.778 994.017 728.827 996.647 728.734C1002.12 728.531 1007.78 729.204 1013.23 729.565C1022.84 730.205 1032.52 730.872 1042.15 731.058C1059.29 731.386 1076.25 729.472 1093.33 728.826C1097.2 728.684 1103.65 728.192 1106.59 731.211C1107.71 732.365 1108.54 734.203 1108.35 735.838C1107.77 740.766 1096.58 744.485 1092.85 747.564C1065.81 769.933 1064.91 864.454 1065.38 899.649C1065.71 917.293 1066.2 934.931 1066.86 952.57C1067.26 966.308 1067.93 979.872 1066.52 993.568C1066.11 999.441 1064.85 1005.84 1060.06 1009.75C1051.74 1016.52 1025.22 1016.41 1017.81 1008.76C1011.53 1002.29 1003 988.841 997.669 980.96C987.952 966.363 977.971 951.94 967.745 937.693C933.581 887.933 895.699 839.059 861.891 789.349C859.682 839.874 860.125 918.332 880.403 964.597C886.014 977.4 893.736 988.328 906.543 994.645C909.611 996.16 912.909 997.15 916.076 998.441C918.509 999.431 921.271 1000.99 922.245 1003.59C922.737 1004.89 922.748 1006.44 922.146 1007.71C921.375 1009.35 919.921 1010.28 918.258 1010.86C913.03 1012.67 875.947 1010.02 868.531 1009.95C856.954 1009.84 845.376 1010.01 833.804 1010.46C830.282 1010.61 826.542 1010.69 823.047 1010.98C805.733 1012.38 788.593 1010.95 771.274 1010.33C756 1009.77 740.71 1009.65 725.43 1009.95C715.772 1010.12 671.83 1013.36 665.88 1010.01C664.355 1009.15 663.228 1007.74 662.845 1006.03C661.593 1000.42 670.851 996.855 674.384 994.022C676.534 992.299 678.333 989.996 679.739 987.633C688.609 972.773 680.394 951.563 676.418 936.112C669.38 962.414 655.932 984.073 632.75 999.152C597.614 1022.01 534.676 1025.02 509.225 986.184C500.405 972.724 497.675 954.221 501.229 938.607C510.237 899.025 552.503 884.444 586.25 872.198C606.206 864.87 632.882 855.588 650.497 844.212C644 823.746 630.4 758.876 617.258 745.847C614.431 743.041 611.078 741.395 607.047 741.504C602.476 741.652 598.166 743.687 595.142 747.121C581.832 762.545 605.385 790.957 606.178 808.546C607.846 826.819 600.283 841.368 583.554 849.485C545.109 868.124 506.318 839.349 514.84 796.897C524.8 747.279 575.898 727.235 621.125 724.336ZM45.7056 728.69C72.2073 728.799 98.4063 732.097 125.007 730.987C136.098 730.527 166.764 727.153 175.281 729.657C178.361 730.56 181.117 732.6 182.762 735.384C187.256 742.975 190.553 751.89 194.33 759.903C199.47 770.803 205.157 781.485 210.727 792.177C232.723 834.378 255.841 875.999 278.01 918.112C295.752 880.238 313.001 842.139 329.755 803.816C335.682 790.126 341.689 776.464 347.775 762.84C350.69 756.195 358.788 734.246 365.164 730.85C371.633 727.399 384.862 729.252 392.516 729.832C401.269 730.516 410.041 730.932 418.819 731.074C431.71 731.2 444.602 730.845 457.467 730.019C464.519 729.63 471.626 728.854 478.631 728.837C483.316 728.908 490.008 728.717 491.836 734.148C492.385 735.92 491.947 738.195 490.468 739.403C485.808 743.199 479.74 744.928 474.757 748.28C471.362 750.517 468.513 753.487 466.418 756.971C461.889 764.458 459.731 773.772 458.24 782.326C451.573 820.562 450.359 931.135 459.242 967.435C462.14 979.281 466.288 989.045 477.548 994.842C480.844 996.543 484.702 997.707 487.795 999.709C489.516 1000.82 491.016 1002.65 491.36 1004.71C491.575 1006 491.243 1007.67 490.372 1008.68C488.799 1010.5 485.35 1011.07 483.032 1011.38C476.451 1012.26 469.4 1011.41 462.787 1011.1C454.253 1010.68 445.713 1010.36 437.171 1010.16C411.217 1009.31 385.24 1009.57 359.308 1010.92C352.524 1011.23 331.544 1013.57 326.501 1009.26C318.69 1002.59 335.091 996.521 339.403 993.988C342.02 992.479 344.414 990.614 346.514 988.443C353.398 981.305 355.91 972.139 357.365 962.568C360.121 944.448 360.814 926.355 361.212 908.071C361.8 881.611 361.842 855.139 361.339 828.679C360.651 811.751 360.303 792.291 360.028 775.304C351.811 791.236 342.466 813.999 334.988 830.757C318.405 867.828 302.13 905.042 286.163 942.386C277.883 961.846 269.95 981.721 261.004 1000.91C259.236 1004.5 257.777 1007.38 254.333 1009.53C244.714 1015.55 219.576 1016.61 212.75 1006.17C208.31 999.387 203.18 988.661 199.236 980.983C191.879 966.681 184.425 952.427 176.875 938.224C149.361 886.342 121.262 834.772 92.5825 783.525C92.9194 841.734 89.2566 901.382 108.81 958.071C114.121 973.156 122.07 986.665 136.73 994.174C141.657 996.695 151.277 998.402 153.044 1003.87C154.381 1008.01 150.328 1011.24 146.394 1011.41C136.277 1011.85 125.897 1010.62 115.666 1010.25C96.5424 1009.47 77.3908 1009.63 58.2847 1010.76C51.9728 1011.18 39.1796 1013.52 34.0435 1009.36C32.9556 1008.48 32.0807 1007.08 32.0161 1005.65C31.7333 999.403 46.3237 994.267 50.3589 989.788C82.992 953.56 78.7518 817.16 76.2876 766.788C68.3821 758.754 63.2123 753.137 52.6519 748.478C48.7564 746.06 40.5318 744.025 37.3179 740.848C27.6105 731.266 39.1997 729.187 45.7056 728.69ZM653.893 860.177C630.717 875.272 602.624 895.284 596.417 923.976C592.895 940.263 596.564 960.319 612.019 969.349C650.169 985.237 668.303 934.072 667.258 904.046C667.018 897.171 660.658 884.192 659.614 876.902C658.837 874.112 656.299 861.523 654.577 860.242L653.893 860.177ZM663.173 421.308C684.605 418.899 712.447 423.797 732.999 430.507C765.877 441.241 796.523 472.001 782.578 509.494C778.153 521.561 769.026 531.316 757.285 536.528C745.554 541.755 730.729 541.989 718.736 537.347C677.01 521.198 697.911 457.881 657.579 440.428C646.499 436.205 633.615 439.436 624.57 446.72C607.081 460.799 603.914 485.631 604.166 506.629C604.756 557.136 635.617 620.457 685.809 637.576C708.05 645.31 732.446 643.927 753.67 633.734C760.72 630.049 764.023 626.448 770.039 621.269C776.169 615.991 784.793 595.891 794.445 602.999C799.553 606.762 796.392 615.126 794.894 620.156C766.5 715.399 640.817 737.643 569.948 675.725C490.999 607.112 512.715 469.215 611.281 432.195C629.284 425.435 644.055 422.837 663.173 421.308ZM972.519 430.913C975.707 424.699 990.882 427.461 996.668 427.714C1003.13 428.168 1009.66 428.402 1016.12 428.822C1041.94 430.479 1067.41 427.833 1093.2 427.068C1100.71 426.845 1109.55 432.381 1101.08 438.977C1097.34 441.893 1089.43 444.843 1084.84 447.222C1079.8 449.885 1074.9 452.787 1070.14 455.919C1039.23 476.46 1011.53 505 984.906 530.409C948.571 565.092 974.455 558.168 1005.1 558.828C1039.96 559.579 1054.44 587.903 1065.37 616.475C1069.88 629.312 1081.16 663.402 1094.67 671.464C1100.88 674.237 1108.25 670.983 1114.26 673.712C1118.45 675.61 1116.76 681.889 1114.2 684.623C1101.98 697.635 1081.78 706.173 1064.38 709.017C1049.4 711.456 1030.68 709.864 1017.07 702.929C975.795 680.658 983.221 638.222 967.449 601.5C964.561 594.772 960.996 588.532 955.106 584.212C950.108 580.553 943.84 579.065 937.732 580.086C929.731 581.372 922.769 586.632 918.11 593.1C918.121 615.153 920.817 664.541 932.903 683.043C937.912 690.716 946.585 692.204 949.883 697.667C950.567 698.794 950.934 700.058 950.48 701.349C949.917 702.94 948.188 704.149 946.766 704.914C944.393 706.189 941.571 706.593 938.902 706.692C930.01 707.003 920.631 705.839 911.707 705.434C895.24 704.684 878.861 704.286 862.373 704.619C851.375 704.844 813.86 708.436 806.05 705.762C803.89 705.024 802.063 703.749 801.144 701.589C800.45 699.97 800.406 698.231 801.451 696.76C802.583 695.157 804.606 694.03 806.209 692.975C813.75 688.041 818.251 683.704 821.647 675.161C837.413 635.569 836.718 500.627 822.445 460.213C820.864 455.729 818.924 451.026 815.659 447.481C811.601 443.075 802.533 440.952 800.433 435.287C800.007 434.146 800.095 432.964 800.62 431.872C801.976 429.055 804.551 428.099 807.34 427.249C815.232 426.657 823.572 427.37 831.463 427.74C844.315 428.345 857.051 429.264 869.93 429.302C884.849 429.308 899.773 428.914 914.675 428.12C922.381 427.74 930.245 426.726 937.951 426.932C941.144 427.017 944.863 427.374 947.46 429.407C948.882 430.521 949.807 432.144 949.917 433.958C950.305 440.386 939.668 442.319 935.993 446.379C917.454 466.852 916.589 545.901 917.628 573.793C924.47 567.593 932.088 562.056 938.87 555.695C959.487 536.363 980.678 514.499 991.254 487.791C996.685 474.085 999.283 454.93 986.065 444.831C981.329 441.213 968.751 439.385 972.519 430.913ZM455.74 429.101C466.83 428.67 502.482 425.215 510.379 428.101C512.35 428.821 513.963 430.008 514.719 432.023C517.552 439.567 506.974 441.243 502.844 444.915C498.766 448.542 495.988 453.456 493.971 458.469C477.964 498.263 478.972 632.492 493.233 672.782C495.086 678.016 497.516 684.082 501.685 687.954C505.318 691.329 513.424 692.784 515.211 697.574C515.789 699.15 515.661 700.9 514.861 702.377C513.628 704.696 511.407 705.325 509.066 705.959C502.012 707.425 483.969 705.877 476.04 705.456C464.766 704.844 453.48 704.509 442.19 704.46C430.031 704.422 417.873 704.734 405.732 705.39C395.624 705.948 383.72 707.868 373.757 706.304C371.067 705.883 367.66 704.876 366.111 702.42C365.269 701.086 364.968 699.204 365.457 697.695C366.633 694.052 371.932 692.341 375.045 690.651C383.079 686.286 386.717 675.839 389.153 667.641C401.283 626.819 402.249 496.997 386.694 457.914C380.275 441.785 369.312 443.022 365.795 435.893C365.172 434.628 365.016 433.16 365.622 431.855C366.917 429.064 369.722 428.078 372.441 427.242C379.845 426.685 387.279 427.398 394.674 427.784C407.024 428.43 419.403 429.202 431.77 429.3C439.75 429.363 447.766 429.41 455.74 429.101ZM323.742 427.841C330.753 427.485 348.496 425.238 353.767 429.409C355.117 430.477 356.052 431.91 356.179 433.648C356.613 439.591 344.874 443.091 340.314 448.688C319.244 474.549 322.736 598.062 326.91 634.857C328.653 650.226 331.386 676.966 342.917 688.02C346.162 691.126 350.62 691.974 353.94 694.829C355.461 696.142 357.03 698.285 357.006 700.38C356.994 701.474 356.473 702.529 355.653 703.268C350.714 707.714 340.435 706.593 334.276 706.271C310.098 704.012 284.268 703.891 260.026 704.843C246.497 705.379 232.439 707.097 218.945 706.594C215.642 706.468 211.316 706.233 208.671 704.056C207.338 702.951 206.454 701.469 206.433 699.713C206.365 694.009 217.143 690.295 220.963 686.505C238.429 669.184 239.023 592.979 239.102 567.144C225.457 566.979 211.526 566.158 197.694 565.941C176.506 565.609 157.212 566.432 136.124 567.363C136.039 595.229 137.133 661.515 151.98 683.868C156.378 690.491 164.58 691.602 167.862 696.311C168.721 697.547 169.047 698.931 168.74 700.413C168.355 702.267 166.984 703.804 165.429 704.805C159.384 708.693 139.115 705.927 131.807 705.566C117.249 704.74 102.667 704.406 88.0864 704.559C75.9453 704.761 32.8531 708.135 24.5942 705.827C22.5535 705.258 20.5685 704.089 19.5698 702.153C15.892 695.037 30.0802 690.328 33.9116 686.27C37.4598 682.518 39.7874 676.414 41.3941 671.596C54.6386 631.844 55.8565 499.946 40.6255 459.583C38.7514 454.617 36.3617 449.678 32.4194 446.015C28.4987 442.371 21.5213 440.844 19.2476 435.683C18.6468 434.319 18.7482 432.795 19.4038 431.471C20.7142 428.823 23.0078 428.062 25.6411 427.242C42.5307 426.114 67.4474 429.245 85.2935 429.339C99.5144 429.467 113.736 429.109 127.933 428.265C137.225 427.801 146.675 426.926 155.97 427.028C159.97 427.073 164.526 427.171 167.406 430.339C168.406 431.44 169.172 433.006 169.051 434.524C168.707 438.867 158.608 443.251 155.414 446.238C137.453 463.038 137.018 527.248 136.368 550.972C159.56 552.115 182.518 553.012 205.75 552.394C215.347 552.139 229.44 551.939 238.964 550.709C238.388 524.781 237.616 497.806 231.883 472.44C229.738 462.948 226.506 451.189 218.634 444.732C216.382 442.884 213.612 441.692 211.172 440.113C209.094 438.768 206.055 436.461 205.732 433.797C205.599 432.699 205.922 431.826 206.593 430.967C208.249 428.85 211.687 427.836 214.222 427.434C220.544 426.432 227.431 427.307 233.799 427.653C244.545 428.236 255.322 428.993 266.079 429.281C285.333 429.797 304.522 428.816 323.742 427.841ZM578.632 124.299C585.255 124.266 593.95 125.196 600.72 125.677C611.341 126.44 621.978 126.836 632.625 126.863C641.512 126.797 650.399 126.415 659.263 125.718C697.73 122.891 692.618 125.81 714.11 156.393C724.03 170.263 734.18 183.97 744.554 197.508C773.473 235.311 805.7 272.273 835.22 310.3C837.156 274.713 837.638 239.062 836.659 203.436C836.221 191.071 836.139 181.06 834.903 168.741C827.886 160.6 816.134 149.891 806.558 145.028C802.806 142.664 788.599 138.718 786.308 135.43C775.704 120.22 807.33 125.044 811.256 125.347C829.363 126.842 847.547 127.194 865.698 126.4C876.909 125.935 888.875 124.148 899.812 124.819C903.498 125.045 910.46 127.54 912.893 130.325C920.024 138.489 926.45 148.772 932.881 157.687C943.305 171.945 953.969 186.027 964.863 199.928C994.296 237.971 1026 273.794 1055.61 312.103C1055.21 293.967 1055.83 276.311 1053.81 257.28C1050.11 222.58 1043.54 175.65 1017.99 149.394C1013.41 142.583 998.085 139.895 994.005 135.326C980.793 120.538 1017.37 125.399 1020.74 125.626C1030.46 126.347 1040.2 126.745 1049.95 126.821C1060.29 126.801 1070.8 126.343 1081.12 125.631C1087.06 125.221 1093.11 124.336 1099.07 124.451C1102.39 124.516 1106.37 124.913 1108.67 127.607C1109.59 128.676 1110.12 130.059 1109.99 131.471C1109.39 137.577 1098.68 141.079 1094.43 144.81C1069.44 166.766 1069.82 285.909 1070.29 320.262C1070.51 333.316 1070.79 346.369 1071.16 359.42C1071.41 369.349 1073.84 394.773 1065.64 401.852C1059.69 406.98 1045.28 406.641 1037.76 405.87C1025.11 404.572 1019.49 398.056 1012.15 388.528C1007.77 382.442 1001.95 375.366 997.281 369.197C981.7 348.601 965.853 328.209 949.742 308.028C918.007 268.199 885.789 228.755 853.097 189.707C850.062 221.895 851.572 263.97 854.279 295.827C856.488 321.757 863.587 363.522 884.472 381.002C890.679 386.623 900.949 388.537 907.096 393.632C912.357 397.992 907.063 404.223 900.654 404.055C883.302 403.599 866.124 401.422 848.755 402.2C837.069 402.724 825.688 405.368 814.035 405.558C796.775 405.9 788.828 390.973 779.57 378.749L749.039 338.247C721.826 303.102 694.132 268.333 665.962 233.95L640.621 202.365C635.671 196.165 629.891 188.486 624.646 182.836C625.171 188.059 624.766 194.134 624.728 199.448C624.394 247.317 625.608 297.26 640.664 343.083C647.882 365.2 661.495 384.094 684.365 391.488C693.333 394.388 688.33 404.147 682.402 403.904C649.775 402.561 617.739 400.836 584.998 404.071C579.879 404.577 567.542 404.961 569.1 396.229C569.97 391.38 577.26 389.495 580.875 386.778C594.596 376.463 598.494 357.544 602.169 341.69C609.41 299.725 610.34 256.249 610.154 213.722C610.083 197.76 609.941 178.927 608.158 163.101C602.99 155.491 594.562 147.38 586.053 143.107C581.377 140.757 564.632 135.97 570.751 127.719C572.802 124.949 575.46 124.633 578.632 124.299ZM531.363 122.702C539.943 121.35 545.494 125.56 546.119 134.134C548.122 161.631 551.163 189.233 552.563 216.741C552.754 220.539 550.391 224.453 546.324 224.778C540.283 225.26 537.082 219.304 534.75 214.694C523.89 194.095 510.153 174.454 492.353 159.237C472.544 142.304 449.948 138.666 424.809 141.161C422.053 161.997 421.107 185.91 420.266 206.914C419.659 222.088 418.943 238.88 419.105 253.975C423.158 253.757 427.199 253.348 431.214 252.75C452.855 249.385 466.507 237.282 475 217.454C477.253 213.052 480.037 204.982 485.776 204.476C496.285 203.55 493.011 223.066 492.832 230.001C492.53 240.89 492.34 251.783 492.261 262.676C492.261 279.182 493.277 295.647 493.261 312.143C493.257 316.426 490.23 319.703 485.788 319.322C480.82 318.896 477.979 312.555 476.176 308.559C472.545 300.51 468.744 292.173 462.637 285.639C451.297 273.385 435.085 269.47 418.982 268.856C418.853 302.778 420.36 355.014 425.996 387.662C463.53 392.489 489.411 376.872 513.125 349.541C527.717 332.962 538.046 312.74 548.954 293.747C549.818 292.238 551.748 290.073 553.476 289.582C561.98 287.173 562.899 296.791 562.543 302.768C561.975 312.197 560.733 321.57 559.782 330.965C557.791 350.524 556.56 370.371 554.078 389.857C552.858 396.744 550.807 402.896 543.061 404.337C536.037 405.644 529.546 405.385 522.523 405.256C517.687 405.167 512.947 404.987 508.163 404.828C492.802 404.191 477.437 403.64 462.071 403.178C427.743 401.752 393.375 401.572 359.034 402.64L329.256 404.012C323.747 404.269 303.288 406.75 302.152 398.514C301.015 390.272 314.499 388.365 319.066 380.686C325.042 370.64 327.741 360.746 329.645 349.235C333.89 321.391 334.155 291.66 334.143 263.487C334.131 233.415 333.851 200.677 328.459 171.105C326.18 160.831 324.152 149.827 315.544 142.814C312.331 140.195 302.619 135.996 302.279 131.767C301.778 125.544 309.891 124.036 314.701 124.047C322.539 124.066 330.379 124.883 338.233 125.208C354.892 125.874 371.56 126.319 388.232 126.544C435.976 127.475 483.737 126.193 531.363 122.702ZM93.7691 126.849C136.868 127.028 180.637 119.022 223.324 129.215C248.42 135.208 272.267 148.845 279.801 175.067C284.362 190.486 282.592 207.088 274.88 221.197C263.773 241.124 244.881 249.498 224.007 255.358C264.972 263.17 303.065 282.425 301.523 330.839C300.985 347.729 296.309 359.392 285.511 372.289C279.136 378.952 272.636 384.308 264.454 388.655C248.537 397.111 230.49 401.271 212.673 403.214C182.188 406.539 151.555 403.618 121.028 402.317C108.858 401.798 96.5853 401.886 84.4048 402.043C73.9986 402.177 29.7499 405.708 23.9907 403.742C21.9534 403.047 20.0562 401.784 19.2466 399.705C16.291 392.115 28.1178 388.544 32.4312 384.676C35.4688 381.952 37.8266 377.547 39.48 373.856C44.6085 362.405 46.6153 348.943 48.0747 336.544C52.6202 297.927 53.6899 195.43 42.6948 160.809C40.6505 154.371 37.7965 147.623 32.7573 142.934C29.1255 139.555 20.1916 137.711 18.8003 132.543C18.3487 130.866 18.7693 129.532 19.7066 128.137C21.521 125.436 23.0866 125.016 26.1743 124.321C33.5755 124.063 44.2125 124.952 51.8755 125.367C65.8244 126.235 79.7938 126.728 93.7691 126.849ZM190.202 276.582C176.017 264.673 153.489 264.44 135.764 264.737C136.122 301.055 136.514 352.019 142.548 387.635C161.944 390.638 181.045 389.9 195.871 375.152C216.436 350.101 216.324 298.515 190.202 276.582ZM192.986 209.21C196.377 176.242 189.874 138.216 149.126 139.662L142.242 140.132C140.017 152.494 139.01 167.294 138.205 179.973C136.779 203.444 136.052 226.952 136.024 250.466C149.745 250.992 162.589 251.067 174.784 243.533C185.483 235.553 191.643 222.273 192.986 209.21Z" fill="black"/>
</svg>
